<svg width="16" height="10" viewBox="0 0 16 10" fill="none" xmlns="http://www.w3.org/2000/svg">
<path d="M7.89258 10C7.53223 9.99121 7.2334 9.86816 6.95215 9.57812L0.333984 2.81055C0.105468 2.59082 -3.35775e-07 2.31836 -3.50374e-07 1.98438C-3.79188e-07 1.3252 0.518554 0.797852 1.17773 0.797852C1.50293 0.797851 1.80176 0.929687 2.03906 1.16699L7.88379 7.17871L13.7461 1.16699C13.9834 0.929687 14.2734 0.797851 14.6074 0.797851C15.2666 0.797851 15.7939 1.32519 15.7939 1.98437C15.7939 2.30957 15.6797 2.59082 15.4512 2.81055L8.83301 9.57812C8.55176 9.86816 8.25293 10 7.89258 10Z" fill="#4d4d4d"/>
</svg>
