<svg width="34" height="26" viewBox="0 0 34 26" fill="none" xmlns="http://www.w3.org/2000/svg">
<path d="M10.2656 12.7031C12.5781 13.9219 13.7344 15.9375 13.7344 18.75C13.7031 20.625 13.0312 22.1875 11.7188 23.4375C10.4375 24.6875 9.10938 25.3125 7.73438 25.3125C7.70312 25.3125 7.6875 25.2969 7.6875 25.2656C6.28125 25.2656 5.15625 25.0938 4.3125 24.75C3.4375 24.375 2.6875 23.9062 2.0625 23.3438C0.6875 22.0938 0 20.5625 0 18.75C0 13.25 4.14062 7.26562 12.4219 0.796875C13.3281 0.796875 14.0156 1.04688 14.4844 1.54688C14.9844 2.04688 15.2344 2.71875 15.2344 3.5625C11.9219 7.28125 10.2656 10.3281 10.2656 12.7031ZM28.9688 12.7031C31.2812 13.9219 32.4375 15.9375 32.4375 18.75C32.4375 20.625 31.7812 22.1875 30.4688 23.4375C29.1875 24.6875 27.8438 25.3125 26.4375 25.3125L26.3906 25.2656C24.9844 25.2656 23.8594 25.0938 23.0156 24.75C22.1719 24.375 21.4375 23.9062 20.8125 23.3438C19.4375 22.0938 18.7344 20.5625 18.7031 18.75C18.7031 13.25 22.8438 7.26562 31.125 0.796875C32.0312 0.796875 32.7188 1.04688 33.1875 1.54688C33.6875 2.04688 33.9375 2.71875 33.9375 3.5625C30.625 7.28125 28.9688 10.3281 28.9688 12.7031Z" fill="#A18458"/>
</svg>
