<svg width="254" height="57" viewBox="0 0 254 57" fill="none" xmlns="http://www.w3.org/2000/svg">
<path d="M230.632 10.9402H244.678C246.571 10.9402 248.205 11.2316 249.581 11.8143C249.858 11.9236 250.075 12.0147 250.232 12.0875C250.463 12.215 250.708 12.3652 250.966 12.5382C252.194 13.2758 253.067 14.3184 253.584 15.666C253.861 16.3854 254 17.1502 254 17.9606V18.1382C254 19.1125 253.792 20.0322 253.376 20.8972C253.247 21.143 253.086 21.4162 252.892 21.7167C252.725 21.9352 252.527 22.1674 252.296 22.4133C252.185 22.5408 252.074 22.6546 251.964 22.7547L251.825 22.8913L251.714 22.9733L251.507 23.1372C251.34 23.2556 251.133 23.3921 250.883 23.5469C250.846 23.5651 250.809 23.5879 250.772 23.6152C250.523 23.7427 250.297 23.8565 250.094 23.9567C249.992 24.0022 249.895 24.0477 249.803 24.0933C249.443 24.239 249.064 24.371 248.667 24.4894C249.812 25.6549 250.597 26.5017 251.022 27.0298C251.308 27.3485 251.59 27.6627 251.867 27.9723C252.393 28.5732 252.896 29.1332 253.376 29.6523C253.524 29.7888 253.612 29.8845 253.64 29.9391H247.656C247.314 29.9391 247.046 29.9027 246.852 29.8298C246.797 29.8025 246.746 29.7752 246.7 29.7479C246.654 29.7206 246.603 29.6887 246.548 29.6523C246.354 29.5248 246.137 29.3108 245.897 29.0103C245.019 27.9814 244.091 26.8568 243.112 25.6367L242.628 25.022C242.6 25.022 242.545 25.0312 242.461 25.0494C241.889 25.0494 240.167 25.0585 237.295 25.0767H233.777V28.1771C233.777 28.7599 233.523 29.2516 233.015 29.6523C232.71 29.8617 232.359 29.9664 231.962 29.9664H228.79V12.8524C228.79 12.5428 228.827 12.2969 228.901 12.1148C228.938 12.0055 229.002 11.8781 229.095 11.7324C229.159 11.6413 229.238 11.5548 229.33 11.4729C229.718 11.1177 230.152 10.9402 230.632 10.9402ZM233.777 15.8709V20.1733H245.121C246.007 20.1733 246.682 20.0231 247.143 19.7226C247.476 19.5131 247.72 19.2354 247.877 18.8894C248.007 18.6253 248.071 18.3249 248.071 17.9879C248.071 17.3232 247.762 16.7678 247.143 16.3216C247.051 16.2579 246.954 16.2032 246.852 16.1577C246.825 16.1486 246.797 16.1349 246.769 16.1167C246.603 16.0348 246.349 15.9619 246.007 15.8982C245.897 15.8982 245.744 15.8891 245.55 15.8709H233.777Z" fill="white"/>
<path d="M210.807 10.9402H214.877C215.701 10.9402 216.391 11.2771 216.947 11.9509C217.095 12.1512 217.28 12.4608 217.502 12.8797C217.539 12.9343 217.572 12.989 217.599 13.0436C217.683 13.1711 218.396 14.4003 219.738 16.7314C220.118 17.3961 220.553 18.1518 221.044 18.9987C224.09 24.289 225.655 26.9934 225.739 27.1118L227.364 29.9664H223.086C221.956 29.9664 221.123 29.4428 220.586 28.3957C220.206 27.7583 219.928 27.2848 219.752 26.9752C219.604 26.7111 219.521 26.57 219.502 26.5518H206.224C206.205 26.5518 206.182 26.5609 206.154 26.5791C206.136 26.5973 206.122 26.6337 206.113 26.6884L204.863 28.8464C204.298 29.5931 203.548 29.9664 202.613 29.9664H198.376C198.358 29.9664 198.349 29.9664 198.349 29.9664C198.349 29.9573 198.349 29.9482 198.349 29.9391C200.395 26.3788 202.177 23.292 203.696 20.6787C204.9 18.5935 205.872 16.9089 206.613 15.625C207.761 13.6309 208.363 12.5929 208.418 12.5109C208.567 12.2377 208.724 11.9964 208.891 11.787C209.428 11.2225 210.067 10.9402 210.807 10.9402ZM212.849 14.9967L208.502 22.5225H217.197C214.354 17.6237 212.905 15.1151 212.849 14.9967Z" fill="white"/>
<path d="M176.349 10.9402H179.494C179.494 10.9948 179.49 11.0403 179.48 11.0768C179.471 11.095 179.467 11.1086 179.467 11.1177V24.2572L179.494 24.2845H179.467C179.485 24.3027 179.494 24.3209 179.494 24.3391C179.494 24.3482 179.494 24.3664 179.494 24.3938V25.0494H196.921V28.0679C196.921 28.9056 196.54 29.502 195.778 29.8571C195.569 29.93 195.365 29.9664 195.165 29.9664H176.376C175.759 29.9664 175.255 29.6978 174.865 29.1606C174.702 28.9056 174.611 28.6506 174.593 28.3957V28.2591L174.565 12.7021C174.565 12.2559 174.742 11.8462 175.096 11.4729C175.459 11.1177 175.877 10.9402 176.349 10.9402Z" fill="white"/>
<path d="M151.139 10.9402H154.284C154.284 10.9948 154.28 11.0403 154.27 11.0768C154.261 11.095 154.257 11.1086 154.257 11.1177V24.2572L154.284 24.2845H154.257C154.275 24.3027 154.284 24.3209 154.284 24.3391C154.284 24.3482 154.284 24.3664 154.284 24.3938V25.0494H171.711V28.0679C171.711 28.9056 171.33 29.502 170.568 29.8571C170.359 29.93 170.155 29.9664 169.955 29.9664H151.166C150.549 29.9664 150.045 29.6978 149.655 29.1606C149.492 28.9056 149.401 28.6506 149.383 28.3957V28.2591L149.355 12.7021C149.355 12.2559 149.532 11.8462 149.886 11.4729C150.25 11.1177 150.667 10.9402 151.139 10.9402Z" fill="white"/>
<path d="M144.158 10.9402C144.753 10.9402 145.238 11.1633 145.614 11.6094C145.788 11.8007 145.911 12.0556 145.985 12.3743C146.012 12.4836 146.026 12.6384 146.026 12.8387V15.6387H128.627V18.384H140.808V22.5089H128.655L128.641 22.5225V25.4318H146.012C146.021 25.4318 146.026 25.4364 146.026 25.4455V28.1908C146.026 28.6097 145.87 29.0012 145.559 29.3654C145.367 29.5567 145.229 29.6705 145.147 29.7069C144.872 29.8799 144.534 29.9664 144.131 29.9664H125.414C125.286 29.9664 125.112 29.93 124.892 29.8571C124.425 29.6841 124.077 29.3745 123.848 28.9284C123.739 28.6734 123.684 28.4002 123.684 28.1089V18.507C123.674 18.0426 123.67 16.531 123.67 13.9724V12.7158C123.67 12.4153 123.766 12.1012 123.958 11.7734C124.16 11.482 124.398 11.268 124.672 11.1314C124.874 11.0403 125.025 10.9903 125.126 10.9812C125.18 10.9629 125.263 10.9493 125.373 10.9402H144.158Z" fill="white"/>
<path d="M98.0234 10.9402H119.35C119.883 10.9402 120.323 11.0995 120.672 11.4182C120.865 11.6003 120.989 11.7506 121.044 11.869C121.209 12.1877 121.292 12.4563 121.292 12.6748V15.8982H111.007V29.9664H107.813C107.363 29.9664 106.941 29.7888 106.546 29.4337C106.537 29.4246 106.528 29.411 106.518 29.3927C106.491 29.3654 106.454 29.3245 106.408 29.2698C106.142 28.9238 106.009 28.5687 106.009 28.2045V15.8982H96.082V13.385C96.082 12.7385 96.1004 12.4107 96.1371 12.4016C96.2197 12.0374 96.362 11.746 96.5639 11.5275C96.7842 11.3363 96.9448 11.2179 97.0458 11.1724C97.2753 11.0176 97.6011 10.9402 98.0234 10.9402Z" fill="white"/>
<path d="M73.9595 10.9402H91.5316C92.0112 10.9402 92.4632 11.0995 92.8875 11.4182C93.4318 11.8826 93.7039 12.479 93.7039 13.2075V15.8709H93.6762C92.3848 15.8891 89.6545 15.8982 85.4851 15.8982C82.2013 15.9164 79.6554 15.9255 77.8475 15.9255C75.9565 15.9437 74.6697 15.9528 73.9872 15.9528C73.8488 15.9528 73.7243 15.9984 73.6136 16.0894C73.5213 16.1805 73.4752 16.3125 73.4752 16.4855V17.5236C73.4752 17.7694 73.5813 17.9379 73.7934 18.0289C73.8211 18.038 73.8442 18.0471 73.8626 18.0562C73.8811 18.0562 73.9041 18.0562 73.9318 18.0562C78.1196 18.038 80.5087 18.0289 81.099 18.0289C81.2466 18.0289 81.5141 18.0244 81.9015 18.0153C82.99 17.9971 85.0562 17.9879 88.1002 17.9879H88.2109C88.6075 17.9879 89.1379 18.038 89.802 18.1382C90.2817 18.2201 90.6783 18.3203 90.992 18.4387C91.9882 18.8211 92.7031 19.4266 93.1366 20.2552C93.5148 20.9837 93.7039 21.8806 93.7039 22.946V24.8991C93.7039 26.8295 93.1274 28.1908 91.9743 28.983C91.0427 29.6386 89.6545 29.9664 87.8096 29.9664H70.6941C70.0484 29.9664 69.4857 29.6978 69.0061 29.1606C68.6648 28.7599 68.4941 28.291 68.4941 27.7537V25.0494H87.9895C88.2109 25.0494 88.3585 24.9446 88.4322 24.7352C88.4507 24.7079 88.4599 24.6806 88.4599 24.6533C88.4691 24.6259 88.4738 24.6077 88.4738 24.5986V23.1645C88.4738 22.9733 88.3677 22.8367 88.1555 22.7547C88.1002 22.7365 88.0448 22.7274 87.9895 22.7274H73.9872C71.7733 22.7274 70.2514 22.1856 69.4212 21.1021C69.2551 20.9017 69.1352 20.7151 69.0614 20.5421C68.9692 20.3691 68.8816 20.1551 68.7985 19.9001C68.7247 19.6634 68.6602 19.372 68.6048 19.026C68.5495 18.6527 68.5218 18.1018 68.5218 17.3733V17.264C68.5218 15.5067 68.674 14.2956 68.9784 13.6309C69.1352 13.1847 69.3981 12.7659 69.7671 12.3743C69.97 12.1467 70.1499 11.9873 70.3067 11.8963C70.8417 11.5321 71.4459 11.2816 72.1193 11.1451C72.6912 11.0085 73.3046 10.9402 73.9595 10.9402Z" fill="white"/>
<path d="M159.302 36.1499C159.619 36.1499 159.877 36.2726 160.077 36.518C160.169 36.6232 160.235 36.7634 160.274 36.9387C160.288 36.9988 160.296 37.0839 160.296 37.1941V38.7341H151.041V40.244H157.52V42.5127H151.056L151.048 42.5202V44.1203H160.288C160.293 44.1203 160.296 44.1228 160.296 44.1278V45.6377C160.296 45.8681 160.213 46.0835 160.047 46.2838C159.945 46.389 159.872 46.4516 159.828 46.4716C159.682 46.5667 159.502 46.6143 159.288 46.6143H149.332C149.264 46.6143 149.171 46.5943 149.054 46.5542C148.806 46.4591 148.621 46.2888 148.499 46.0434C148.441 45.9032 148.412 45.7529 148.412 45.5927V40.3116C148.407 40.0562 148.404 39.2249 148.404 37.8176V37.1265C148.404 36.9612 148.455 36.7884 148.558 36.6081C148.665 36.4479 148.791 36.3302 148.938 36.2551C149.045 36.205 149.125 36.1774 149.179 36.1724C149.208 36.1624 149.252 36.1549 149.31 36.1499H159.302Z" fill="white"/>
<path d="M133.696 36.1499H135.342C135.396 36.1499 135.835 36.513 136.66 37.2392C137.484 37.9653 138.411 38.7942 139.44 39.7257C140.475 40.6522 141.392 41.4785 142.192 42.2047L143.392 43.294V36.1499H145.038C145.385 36.1499 145.656 36.2901 145.851 36.5706C145.968 36.7409 146.026 36.9337 146.026 37.149V45.6002C146.026 45.9357 145.887 46.2162 145.609 46.4415C145.536 46.4916 145.446 46.5342 145.338 46.5692C145.27 46.5993 145.146 46.6143 144.965 46.6143H143.421C143.363 46.6143 142.919 46.2512 142.089 45.5251C141.26 44.7989 140.328 43.9726 139.294 43.0461C138.26 42.1145 137.343 41.2857 136.543 40.5595L135.342 39.4778V46.6143H133.74C133.501 46.6143 133.306 46.5642 133.154 46.4641C132.974 46.3389 132.845 46.1686 132.767 45.9533C132.728 45.8481 132.708 45.7354 132.708 45.6152V37.1716C132.708 36.831 132.842 36.5581 133.11 36.3527C133.276 36.2175 133.471 36.1499 133.696 36.1499Z" fill="white"/>
<path d="M127.476 36.1499H129.42C129.77 36.1499 130.035 36.3202 130.217 36.6607C130.292 36.806 130.33 36.9863 130.33 37.2016V46.6143H128.332C128.115 46.6143 127.911 46.5117 127.721 46.3063C127.557 46.116 127.476 45.8756 127.476 45.5852V36.1499Z" fill="white"/>
<path d="M117.839 36.1499H119.974C120.407 36.1499 120.769 36.3352 121.06 36.7058C121.138 36.816 121.235 36.9863 121.351 37.2166C121.371 37.2467 121.388 37.2767 121.402 37.3068C121.446 37.3769 121.82 38.053 122.525 39.3351C122.724 39.7006 122.952 40.1163 123.209 40.5821C124.808 43.4918 125.628 44.9792 125.672 45.0443L126.525 46.6143H124.281C123.688 46.6143 123.251 46.3264 122.969 45.7504C122.77 45.3999 122.624 45.1394 122.532 44.9692C122.454 44.8239 122.41 44.7463 122.401 44.7363H115.435C115.425 44.7363 115.413 44.7413 115.399 44.7513C115.389 44.7613 115.382 44.7814 115.377 44.8114L114.721 45.9983C114.425 46.409 114.031 46.6143 113.541 46.6143H111.318C111.309 46.6143 111.304 46.6143 111.304 46.6143C111.304 46.6093 111.304 46.6043 111.304 46.5993C112.377 44.6411 113.312 42.9434 114.109 41.5061C114.74 40.3592 115.25 39.4327 115.639 38.7266C116.241 37.6298 116.557 37.0589 116.586 37.0138C116.664 36.8636 116.747 36.7308 116.834 36.6157C117.116 36.3052 117.451 36.1499 117.839 36.1499ZM118.911 38.381L116.63 42.5202H121.191C119.7 39.8258 118.94 38.4461 118.911 38.381Z" fill="white"/>
<path d="M98.0074 36.1499H105.428C106.428 36.1499 107.291 36.3102 108.018 36.6307C108.165 36.6908 108.279 36.7409 108.362 36.7809C108.484 36.851 108.613 36.9337 108.75 37.0288C109.399 37.4345 109.86 38.0079 110.133 38.7491C110.279 39.1447 110.353 39.5654 110.353 40.0111V40.1088C110.353 40.6447 110.243 41.1505 110.023 41.6263C109.955 41.7615 109.87 41.9117 109.767 42.077C109.679 42.1972 109.574 42.3249 109.452 42.4601C109.394 42.5302 109.335 42.5928 109.277 42.6479L109.204 42.723L109.145 42.7681L109.035 42.8582C108.948 42.9234 108.838 42.9985 108.706 43.0836C108.687 43.0936 108.667 43.1061 108.647 43.1212C108.516 43.1913 108.396 43.2539 108.289 43.309C108.235 43.334 108.184 43.3591 108.135 43.3841C107.945 43.4642 107.745 43.5368 107.535 43.602C108.14 44.243 108.555 44.7087 108.779 44.9992C108.93 45.1745 109.079 45.3473 109.226 45.5175C109.504 45.8481 109.77 46.1561 110.023 46.4415C110.101 46.5167 110.148 46.5692 110.162 46.5993H107.001C106.82 46.5993 106.679 46.5793 106.577 46.5392C106.547 46.5242 106.52 46.5092 106.496 46.4941C106.472 46.4791 106.445 46.4616 106.416 46.4415C106.313 46.3714 106.198 46.2537 106.072 46.0885C105.608 45.5226 105.118 44.9041 104.601 44.233L104.345 43.8949C104.33 43.8949 104.301 43.8999 104.257 43.9099C103.954 43.9099 103.045 43.915 101.527 43.925H99.6686V45.6302C99.6686 45.9507 99.5344 46.2212 99.2661 46.4415C99.1051 46.5567 98.9197 46.6143 98.71 46.6143H97.0342V37.2016C97.0342 37.0313 97.0537 36.8961 97.0927 36.7959C97.1122 36.7358 97.1464 36.6657 97.1952 36.5856C97.2293 36.5355 97.2708 36.4879 97.3196 36.4429C97.5245 36.2476 97.7538 36.1499 98.0074 36.1499ZM99.6686 38.8618V41.2281H105.662C106.13 41.2281 106.486 41.1455 106.73 40.9802C106.906 40.865 107.035 40.7123 107.118 40.522C107.186 40.3767 107.221 40.2115 107.221 40.0262C107.221 39.6606 107.057 39.3551 106.73 39.1097C106.681 39.0746 106.63 39.0446 106.577 39.0195C106.562 39.0145 106.547 39.007 106.533 38.997C106.445 38.9519 106.311 38.9119 106.13 38.8768C106.072 38.8768 105.991 38.8718 105.889 38.8618H99.6686Z" fill="white"/>
<path d="M84.8281 36.1499H86.5844V40.6121L91.5239 36.3527C91.6751 36.2576 91.8312 36.2 91.9922 36.18C92.0313 36.1699 92.1117 36.1649 92.2337 36.1649H95.6511C95.6511 36.1699 95.6487 36.1724 95.6438 36.1724C95.6438 36.1724 95.6414 36.1749 95.6365 36.18C95.6316 36.18 95.6267 36.185 95.6218 36.195C95.617 36.2 95.6096 36.2075 95.5999 36.2175C95.5901 36.2225 94.6461 37.0313 92.7679 38.6439C90.9726 40.1864 90.075 40.9827 90.075 41.0328H90.0823C90.0725 41.0378 90.0676 41.0453 90.0676 41.0553C90.0676 41.3107 92.0459 42.9609 96.0024 46.0058C96.056 46.076 96.0829 46.1961 96.0829 46.3664C96.0829 46.4365 96.078 46.5192 96.0682 46.6143H92.5776C92.3093 46.6143 92.0581 46.5167 91.8239 46.3213L86.5844 42.1671V46.5993H84.7549C84.4817 46.5993 84.2403 46.5066 84.0305 46.3213C83.8207 46.111 83.7158 45.8756 83.7158 45.6152V37.134C83.7158 36.8736 83.828 36.6382 84.0524 36.4279C84.1646 36.3077 84.3232 36.225 84.5281 36.18C84.6061 36.1599 84.7062 36.1499 84.8281 36.1499Z" fill="white"/>
<path d="M72.0307 46.6143C71.65 46.5993 71.3706 46.5843 71.1927 46.5692C71.0542 46.5692 70.7749 46.5217 70.3546 46.4265C70.0382 46.3464 69.796 46.2663 69.6279 46.1861C69.3955 46.081 69.1631 45.9207 68.9307 45.7054C68.3226 45.1545 68.0186 44.1854 68.0186 42.7982L68.0779 37.4946C68.0779 37.139 68.1743 36.846 68.3671 36.6157C68.6341 36.3052 68.9579 36.1499 69.3386 36.1499H70.8144V43.1512C70.8144 43.2314 70.8342 43.319 70.8738 43.4141C71.0073 43.6896 71.21 43.8273 71.4819 43.8273H78.3492C78.547 43.8273 78.7176 43.7397 78.8609 43.5644C78.9648 43.4592 79.0167 43.2914 79.0167 43.0611V36.1649C79.0167 36.1599 79.0167 36.1574 79.0167 36.1574C79.0167 36.1524 79.0216 36.1499 79.0315 36.1499H80.4999C80.668 36.1499 80.8312 36.1875 80.9894 36.2626C81.2959 36.3928 81.5184 36.6182 81.6568 36.9387C81.7013 37.0589 81.731 37.1816 81.7458 37.3068C81.7903 40.5921 81.8126 42.4426 81.8126 42.8582C81.8126 43.6145 81.7063 44.2705 81.4937 44.8264C81.4393 44.9717 81.3577 45.1319 81.2489 45.3072C81.0858 45.5476 80.8831 45.7579 80.6408 45.9382C80.4381 46.0684 80.2305 46.1761 80.0179 46.2613C79.8053 46.3514 79.4864 46.434 79.0612 46.5092C78.5717 46.5793 78.1663 46.6143 77.8449 46.6143H72.0307Z" fill="white"/>
<path fill-rule="evenodd" clip-rule="evenodd" d="M23.6409 3.06497C25.1715 -1.02166 30.9558 -1.02166 32.4865 3.06497L38.0938 18.0319L53.0621 23.6387C57.1491 25.1692 57.1491 30.9529 53.0621 32.4835L38.099 38.0954L32.4917 53.0624C30.961 57.149 25.1767 57.149 23.6461 53.0624L18.0336 38.0954L3.06525 32.4887C-1.02175 30.9582 -1.02175 25.1744 3.06525 23.6439L18.0336 18.0371L23.6409 3.06497ZM28.0663 5.75642L22.7402 19.9685C22.2612 21.2492 21.2511 22.2539 19.9756 22.7328L5.76216 28.0585L19.9756 33.3841C21.2563 33.863 22.2612 34.873 22.7402 36.1484L28.0663 50.3605L33.3924 36.1484C33.8714 34.8678 34.8814 33.863 36.157 33.3841L50.3704 28.0585L36.157 22.7328C34.8762 22.2539 33.8714 21.244 33.3924 19.9685L28.0663 5.75642Z" fill="white"/>
<path fill-rule="evenodd" clip-rule="evenodd" d="M9.27649 16.9428C9.68031 16.8092 9.94952 16.4391 10.0116 16.0228C10.4672 12.9647 12.8643 10.5336 15.9188 9.99908C16.3174 9.92712 16.6695 9.67014 16.8041 9.29494L18.0207 5.94386C18.233 5.36308 17.7981 4.75659 17.182 4.75659C10.3223 4.75659 4.75684 10.2818 4.75684 17.0919C4.75684 17.7652 5.42469 18.238 6.06666 18.0221L9.27649 16.9428Z" fill="#FFD600"/>
<path fill-rule="evenodd" clip-rule="evenodd" d="M46.8514 16.9428C46.4476 16.8092 46.1784 16.4391 46.1163 16.0228C45.6607 12.9647 43.2637 10.5336 40.2091 9.99908C39.8105 9.92712 39.4585 9.67014 39.3238 9.29494L38.1072 5.94386C37.895 5.36308 38.3298 4.75659 38.9459 4.75659C45.8056 4.75659 51.3711 10.2818 51.3711 17.0919C51.3711 17.7652 50.7032 18.238 50.0613 18.0221L46.8514 16.9428Z" fill="#FFD600"/>
<path fill-rule="evenodd" clip-rule="evenodd" d="M9.27649 39.1795C9.68031 39.3131 9.94952 39.6832 10.0116 40.0995C10.4672 43.1576 12.8643 45.5887 15.9188 46.1232C16.3174 46.1952 16.6695 46.4522 16.8041 46.8274L18.0207 50.1836C18.233 50.7644 17.7981 51.3708 17.182 51.3708C10.3223 51.3708 4.75684 45.8508 4.75684 39.0356C4.75684 38.3623 5.42469 37.8894 6.06666 38.1053L9.27649 39.1795Z" fill="#FFD600"/>
<path fill-rule="evenodd" clip-rule="evenodd" d="M46.8514 39.1795C46.4476 39.3131 46.1784 39.6832 46.1163 40.0995C45.6607 43.1576 43.2637 45.5887 40.2091 46.1232C39.8105 46.1952 39.4585 46.4522 39.3238 46.8274L38.1072 50.1836C37.895 50.7644 38.3298 51.3708 38.9459 51.3708C45.8056 51.3708 51.3711 45.8508 51.3711 39.0356C51.3711 38.3623 50.7032 37.8894 50.0613 38.1053L46.8514 39.1795Z" fill="#FFD600"/>
</svg>
