<svg width="595" height="559" viewBox="0 0 595 559" fill="none" xmlns="http://www.w3.org/2000/svg">
<g opacity="0.05">
<path fill-rule="evenodd" clip-rule="evenodd" d="M335.487 -51.1891C309.051 -87.473 250.815 -72.1783 246.429 -27.7997L230.356 134.737L94.782 229.649C57.7635 255.561 73.3678 312.641 118.645 316.939L284.434 332.759L381.268 465.642C407.704 501.926 465.94 486.632 470.325 442.253L486.451 279.703L622.025 184.791C659.043 158.879 643.439 101.799 598.162 97.5004L432.335 81.7457L335.487 -51.1891ZM298.193 -12.9254L390.16 113.252C398.438 124.624 411.317 131.869 425.452 133.223L582.92 148.199L454.188 238.341C442.586 246.454 435.194 259.079 433.813 272.933L418.533 427.276L326.566 301.099C318.289 289.727 305.409 282.481 291.275 281.128L133.806 266.151L262.538 176.009C274.141 167.896 281.532 155.272 282.914 141.418L298.193 -12.9254Z" fill="white"/>
<path fill-rule="evenodd" clip-rule="evenodd" d="M517.752 48.1332C513.298 47.8712 509.561 44.8879 507.794 40.8915C494.825 11.5335 463.912 -6.39413 431.525 -3.61512C427.292 -3.27438 423.025 -4.90713 420.637 -8.29975L399.162 -38.5627C395.425 -43.8039 398.171 -51.0228 404.409 -52.661C473.862 -70.9017 545.31 -30.47 563.92 37.605C565.759 44.3354 560.29 50.8381 553.2 50.3873L517.752 48.1332Z" fill="white"/>
<path fill-rule="evenodd" clip-rule="evenodd" d="M140.346 147.252C144.07 144.842 145.784 140.427 145.276 136.1C141.531 104.32 159.157 73.6441 188.623 60.1786C192.462 58.3993 195.325 54.8943 195.662 50.7858L198.823 14.0527C199.385 7.68258 193.324 2.77643 187.087 4.41465C117.633 22.6553 76.3831 92.685 94.9931 160.76C96.833 167.49 104.887 170.441 110.797 166.576L140.346 147.252Z" fill="white"/>
<path fill-rule="evenodd" clip-rule="evenodd" d="M577.08 265.148C573.357 267.557 571.642 271.972 572.151 276.299C575.895 308.08 558.269 338.755 528.803 352.221C524.964 354 522.102 357.505 521.764 361.614L518.618 398.398C518.056 404.768 524.116 409.674 530.354 408.036C599.807 389.796 641.071 319.817 622.447 251.691C620.607 244.96 612.553 242.01 606.643 245.874L577.08 265.148Z" fill="white"/>
<path fill-rule="evenodd" clip-rule="evenodd" d="M199.673 364.267C204.126 364.529 207.863 367.512 209.63 371.509C222.6 400.867 253.512 418.794 285.9 416.015C290.132 415.674 294.399 417.307 296.787 420.7L318.277 451.014C322.013 456.255 319.267 463.474 313.03 465.112C243.576 483.353 172.143 442.973 153.519 374.846C151.679 368.116 157.149 361.613 164.238 362.064L199.673 364.267Z" fill="white"/>
</g>
</svg>
