<svg width="16" height="10" viewBox="0 0 16 10" fill="none" xmlns="http://www.w3.org/2000/svg">
<path d="M7.89258 3.44996e-07C7.53223 0.00878939 7.2334 0.131836 6.95215 0.421875L0.333984 7.18945C0.105468 7.40918 -3.35775e-07 7.68164 -3.50374e-07 8.01562C-3.79188e-07 8.6748 0.518554 9.20215 1.17773 9.20215C1.50293 9.20215 1.80176 9.07031 2.03906 8.83301L7.88379 2.82129L13.7461 8.83301C13.9834 9.07031 14.2734 9.20215 14.6074 9.20215C15.2666 9.20215 15.7939 8.67481 15.7939 8.01563C15.7939 7.69043 15.6797 7.40918 15.4512 7.18945L8.83301 0.421875C8.55176 0.131836 8.25293 3.60747e-07 7.89258 3.44996e-07Z" fill="#2253D1"/>
</svg>